<?xml version="1.0" encoding="UTF-8" standalone="no"?>
<!-- Created with Inkscape (http://www.inkscape.org/) -->

<svg
   xmlns:dc="http://purl.org/dc/elements/1.1/"
   xmlns:cc="http://creativecommons.org/ns#"
   xmlns:rdf="http://www.w3.org/1999/02/22-rdf-syntax-ns#"
   xmlns:svg="http://www.w3.org/2000/svg"
   xmlns="http://www.w3.org/2000/svg"
   xmlns:sodipodi="http://sodipodi.sourceforge.net/DTD/sodipodi-0.dtd"
   xmlns:inkscape="http://www.inkscape.org/namespaces/inkscape"
   width="680"
   height="165"
   id="svg2"
   version="1.1"
   inkscape:version="0.48.2 r9819"
   sodipodi:docname="mancala.pdf">
  <defs
     id="defs4" />
  <sodipodi:namedview
     id="base"
     pagecolor="#ffffff"
     bordercolor="#666666"
     borderopacity="1.0"
     inkscape:pageopacity="0.0"
     inkscape:pageshadow="2"
     inkscape:zoom="0.98994949"
     inkscape:cx="200.64035"
     inkscape:cy="-79.830585"
     inkscape:document-units="px"
     inkscape:current-layer="layer1"
     showgrid="false"
     inkscape:window-width="1920"
     inkscape:window-height="1024"
     inkscape:window-x="-4"
     inkscape:window-y="-4"
     inkscape:window-maximized="1"
     fit-margin-top="0"
     fit-margin-left="0"
     fit-margin-right="0"
     fit-margin-bottom="0" />
  <metadata
     id="metadata7">
    <rdf:RDF>
      <cc:Work
         rdf:about="">
        <dc:format>image/svg+xml</dc:format>
        <dc:type
           rdf:resource="http://purl.org/dc/dcmitype/StillImage" />
        <dc:title></dc:title>
      </cc:Work>
    </rdf:RDF>
  </metadata>
  <g
     inkscape:label="Layer 1"
     inkscape:groupmode="layer"
     id="layer1"
     transform="translate(0,-0.94826341)">
    <path
       sodipodi:type="arc"
       style="fill:none;stroke:#000000;stroke-width:5;stroke-miterlimit:5;stroke-opacity:1;stroke-dasharray:none;stroke-dashoffset:0"
       id="path2985"
       sodipodi:cx="252.53813"
       sodipodi:cy="200.80359"
       sodipodi:rx="23.233509"
       sodipodi:ry="23.233509"
       d="m 275.77164,200.80359 a 23.233509,23.233509 0 1 1 -46.46702,0 23.233509,23.233509 0 1 1 46.46702,0 z"
       transform="translate(-73.766512,-149.98735)" />
    <path
       transform="translate(-9.2177589,-149.98735)"
       sodipodi:type="arc"
       style="fill:none;stroke:#000000;stroke-width:5;stroke-miterlimit:5;stroke-opacity:1;stroke-dasharray:none;stroke-dashoffset:0"
       id="path2985-1"
       sodipodi:cx="252.53813"
       sodipodi:cy="200.80359"
       sodipodi:rx="23.233509"
       sodipodi:ry="23.233509"
       d="m 275.77164,200.80359 a 23.233509,23.233509 0 1 1 -46.46702,0 23.233509,23.233509 0 1 1 46.46702,0 z" />
    <path
       transform="translate(55.330978,-149.98735)"
       sodipodi:type="arc"
       style="fill:none;stroke:#000000;stroke-width:5;stroke-miterlimit:5;stroke-opacity:1;stroke-dasharray:none;stroke-dashoffset:0"
       id="path2985-7"
       sodipodi:cx="252.53813"
       sodipodi:cy="200.80359"
       sodipodi:rx="23.233509"
       sodipodi:ry="23.233509"
       d="m 275.77164,200.80359 a 23.233509,23.233509 0 1 1 -46.46702,0 23.233509,23.233509 0 1 1 46.46702,0 z" />
    <path
       transform="translate(119.87971,-149.98735)"
       sodipodi:type="arc"
       style="fill:none;stroke:#000000;stroke-width:5;stroke-miterlimit:5;stroke-opacity:1;stroke-dasharray:none;stroke-dashoffset:0"
       id="path2985-4"
       sodipodi:cx="252.53813"
       sodipodi:cy="200.80359"
       sodipodi:rx="23.233509"
       sodipodi:ry="23.233509"
       d="m 275.77164,200.80359 a 23.233509,23.233509 0 1 1 -46.46702,0 23.233509,23.233509 0 1 1 46.46702,0 z" />
    <path
       transform="translate(184.42846,-149.98735)"
       sodipodi:type="arc"
       style="fill:none;stroke:#000000;stroke-width:5;stroke-miterlimit:5;stroke-opacity:1;stroke-dasharray:none;stroke-dashoffset:0"
       id="path2985-0"
       sodipodi:cx="252.53813"
       sodipodi:cy="200.80359"
       sodipodi:rx="23.233509"
       sodipodi:ry="23.233509"
       d="m 275.77164,200.80359 a 23.233509,23.233509 0 1 1 -46.46702,0 23.233509,23.233509 0 1 1 46.46702,0 z" />
    <path
       transform="translate(248.97723,-149.98735)"
       sodipodi:type="arc"
       style="fill:none;stroke:#000000;stroke-width:5;stroke-miterlimit:5;stroke-opacity:1;stroke-dasharray:none;stroke-dashoffset:0"
       id="path2985-9"
       sodipodi:cx="252.53813"
       sodipodi:cy="200.80359"
       sodipodi:rx="23.233509"
       sodipodi:ry="23.233509"
       d="m 275.77164,200.80359 a 23.233509,23.233509 0 1 1 -46.46702,0 23.233509,23.233509 0 1 1 46.46702,0 z" />
    <path
       sodipodi:type="arc"
       style="fill:none;stroke:#000000;stroke-width:5;stroke-miterlimit:5;stroke-opacity:1;stroke-dasharray:none;stroke-dashoffset:0"
       id="path2985-48"
       sodipodi:cx="252.53813"
       sodipodi:cy="200.80359"
       sodipodi:rx="23.233509"
       sodipodi:ry="23.233509"
       d="m 275.77164,200.80359 a 23.233509,23.233509 0 1 1 -46.46702,0 23.233509,23.233509 0 1 1 46.46702,0 z"
       transform="translate(-73.766512,-81.802052)" />
    <path
       transform="translate(-9.0157309,-81.802052)"
       sodipodi:type="arc"
       style="fill:none;stroke:#000000;stroke-width:5;stroke-miterlimit:5;stroke-opacity:1;stroke-dasharray:none;stroke-dashoffset:0"
       id="path2985-1-8"
       sodipodi:cx="252.53813"
       sodipodi:cy="200.80359"
       sodipodi:rx="23.233509"
       sodipodi:ry="23.233509"
       d="m 275.77164,200.80359 a 23.233509,23.233509 0 1 1 -46.46702,0 23.233509,23.233509 0 1 1 46.46702,0 z" />
    <path
       transform="translate(55.735048,-81.802052)"
       sodipodi:type="arc"
       style="fill:none;stroke:#000000;stroke-width:5;stroke-miterlimit:5;stroke-opacity:1;stroke-dasharray:none;stroke-dashoffset:0"
       id="path2985-7-2"
       sodipodi:cx="252.53813"
       sodipodi:cy="200.80359"
       sodipodi:rx="23.233509"
       sodipodi:ry="23.233509"
       d="m 275.77164,200.80359 a 23.233509,23.233509 0 1 1 -46.46702,0 23.233509,23.233509 0 1 1 46.46702,0 z" />
    <path
       transform="translate(120.48584,-81.802052)"
       sodipodi:type="arc"
       style="fill:none;stroke:#000000;stroke-width:5;stroke-miterlimit:5;stroke-opacity:1;stroke-dasharray:none;stroke-dashoffset:0"
       id="path2985-4-4"
       sodipodi:cx="252.53813"
       sodipodi:cy="200.80359"
       sodipodi:rx="23.233509"
       sodipodi:ry="23.233509"
       d="m 275.77164,200.80359 a 23.233509,23.233509 0 1 1 -46.46702,0 23.233509,23.233509 0 1 1 46.46702,0 z" />
    <path
       transform="translate(185.23663,-81.802052)"
       sodipodi:type="arc"
       style="fill:none;stroke:#000000;stroke-width:5;stroke-miterlimit:5;stroke-opacity:1;stroke-dasharray:none;stroke-dashoffset:0"
       id="path2985-0-5"
       sodipodi:cx="252.53813"
       sodipodi:cy="200.80359"
       sodipodi:rx="23.233509"
       sodipodi:ry="23.233509"
       d="m 275.77164,200.80359 a 23.233509,23.233509 0 1 1 -46.46702,0 23.233509,23.233509 0 1 1 46.46702,0 z" />
    <path
       transform="translate(249.98736,-81.802052)"
       sodipodi:type="arc"
       style="fill:none;stroke:#000000;stroke-width:5;stroke-miterlimit:5;stroke-opacity:1;stroke-dasharray:none;stroke-dashoffset:0"
       id="path2985-9-5"
       sodipodi:cx="252.53813"
       sodipodi:cy="200.80359"
       sodipodi:rx="23.233509"
       sodipodi:ry="23.233509"
       d="m 275.77164,200.80359 a 23.233509,23.233509 0 1 1 -46.46702,0 23.233509,23.233509 0 1 1 46.46702,0 z" />
    <path
       transform="matrix(2.8582863,0,0,2.8582863,-119.73982,-490.56048)"
       sodipodi:type="arc"
       style="fill:none;stroke:#000000;stroke-width:1.74929988;stroke-miterlimit:5;stroke-opacity:1;stroke-dasharray:none;stroke-dashoffset:0"
       id="path2985-9-5-1"
       sodipodi:cx="252.53813"
       sodipodi:cy="200.80359"
       sodipodi:rx="23.233509"
       sodipodi:ry="23.233509"
       d="m 275.77164,200.80359 a 23.233509,23.233509 0 1 1 -46.46702,0 23.233509,23.233509 0 1 1 46.46702,0 z" />
    <path
       transform="matrix(2.8582863,0,0,2.8582863,-642.55469,-490.56048)"
       sodipodi:type="arc"
       style="fill:none;stroke:#000000;stroke-width:1.74929988;stroke-miterlimit:5;stroke-opacity:1;stroke-dasharray:none;stroke-dashoffset:0"
       id="path2985-9-5-1-7"
       sodipodi:cx="252.53813"
       sodipodi:cy="200.80359"
       sodipodi:rx="23.233509"
       sodipodi:ry="23.233509"
       d="m 275.77164,200.80359 a 23.233509,23.233509 0 1 1 -46.46702,0 23.233509,23.233509 0 1 1 46.46702,0 z" />
    <rect
       style="fill:none;stroke:#000000;stroke-width:4.94999361;stroke-miterlimit:5;stroke-opacity:1;stroke-dasharray:none;stroke-dashoffset:0"
       id="rect3870"
       width="675.04999"
       height="160.05"
       x="2.4749966"
       y="3.4232602" />
    <path
       sodipodi:type="arc"
       style="fill:#000000;fill-opacity:1;stroke:#000000;stroke-width:3.93442011;stroke-miterlimit:5;stroke-opacity:1;stroke-dasharray:none;stroke-dashoffset:0"
       id="path2985-11"
       sodipodi:cx="252.53813"
       sodipodi:cy="200.80359"
       sodipodi:rx="23.233509"
       sodipodi:ry="23.233509"
       d="m 275.77164,200.80359 a 23.233509,23.233509 0 1 1 -46.46702,0 23.233509,23.233509 0 1 1 46.46702,0 z"
       transform="matrix(0.25416707,0,0,0.25416707,108.01875,-9.3127934)" />
    <path
       sodipodi:type="arc"
       style="fill:#000000;fill-opacity:1;stroke:#000000;stroke-width:3.93442011;stroke-miterlimit:5;stroke-opacity:1;stroke-dasharray:none;stroke-dashoffset:0"
       id="path2985-11-5"
       sodipodi:cx="252.53813"
       sodipodi:cy="200.80359"
       sodipodi:rx="23.233509"
       sodipodi:ry="23.233509"
       d="m 275.77164,200.80359 a 23.233509,23.233509 0 1 1 -46.46702,0 23.233509,23.233509 0 1 1 46.46702,0 z"
       transform="matrix(0.25416707,0,0,0.25416707,123.17104,-9.3127934)" />
    <path
       sodipodi:type="arc"
       style="fill:#000000;fill-opacity:1;stroke:#000000;stroke-width:3.93442011;stroke-miterlimit:5;stroke-opacity:1;stroke-dasharray:none;stroke-dashoffset:0"
       id="path2985-11-5-2"
       sodipodi:cx="252.53813"
       sodipodi:cy="200.80359"
       sodipodi:rx="23.233509"
       sodipodi:ry="23.233509"
       d="m 275.77164,200.80359 a 23.233509,23.233509 0 1 1 -46.46702,0 23.233509,23.233509 0 1 1 46.46702,0 z"
       transform="matrix(0.25416707,0,0,0.25416707,110.03906,5.8394966)" />
    <path
       sodipodi:type="arc"
       style="fill:#000000;fill-opacity:1;stroke:#000000;stroke-width:3.93442011;stroke-miterlimit:5;stroke-opacity:1;stroke-dasharray:none;stroke-dashoffset:0"
       id="path2985-11-5-2-7"
       sodipodi:cx="252.53813"
       sodipodi:cy="200.80359"
       sodipodi:rx="23.233509"
       sodipodi:ry="23.233509"
       d="m 275.77164,200.80359 a 23.233509,23.233509 0 1 1 -46.46702,0 23.233509,23.233509 0 1 1 46.46702,0 z"
       transform="matrix(0.25416707,0,0,0.25416707,126.2015,7.8597966)" />
    <path
       sodipodi:type="arc"
       style="fill:#000000;fill-opacity:1;stroke:#000000;stroke-width:3.93442011;stroke-miterlimit:5;stroke-opacity:1;stroke-dasharray:none;stroke-dashoffset:0"
       id="path2985-11-6"
       sodipodi:cx="252.53813"
       sodipodi:cy="200.80359"
       sodipodi:rx="23.233509"
       sodipodi:ry="23.233509"
       d="m 275.77164,200.80359 a 23.233509,23.233509 0 1 1 -46.46702,0 23.233509,23.233509 0 1 1 46.46702,0 z"
       transform="matrix(0.25416707,0,0,0.25416707,169.63806,-7.2924934)" />
    <path
       sodipodi:type="arc"
       style="fill:#000000;fill-opacity:1;stroke:#000000;stroke-width:3.93442011;stroke-miterlimit:5;stroke-opacity:1;stroke-dasharray:none;stroke-dashoffset:0"
       id="path2985-11-5-1"
       sodipodi:cx="252.53813"
       sodipodi:cy="200.80359"
       sodipodi:rx="23.233509"
       sodipodi:ry="23.233509"
       d="m 275.77164,200.80359 a 23.233509,23.233509 0 1 1 -46.46702,0 23.233509,23.233509 0 1 1 46.46702,0 z"
       transform="matrix(0.25416707,0,0,0.25416707,184.79035,-7.2924934)" />
    <path
       sodipodi:type="arc"
       style="fill:#000000;fill-opacity:1;stroke:#000000;stroke-width:3.93442011;stroke-miterlimit:5;stroke-opacity:1;stroke-dasharray:none;stroke-dashoffset:0"
       id="path2985-11-5-2-4"
       sodipodi:cx="252.53813"
       sodipodi:cy="200.80359"
       sodipodi:rx="23.233509"
       sodipodi:ry="23.233509"
       d="m 275.77164,200.80359 a 23.233509,23.233509 0 1 1 -46.46702,0 23.233509,23.233509 0 1 1 46.46702,0 z"
       transform="matrix(0.25416707,0,0,0.25416707,171.65837,7.8597966)" />
    <path
       sodipodi:type="arc"
       style="fill:#000000;fill-opacity:1;stroke:#000000;stroke-width:3.93442011;stroke-miterlimit:5;stroke-opacity:1;stroke-dasharray:none;stroke-dashoffset:0"
       id="path2985-11-5-2-7-2"
       sodipodi:cx="252.53813"
       sodipodi:cy="200.80359"
       sodipodi:rx="23.233509"
       sodipodi:ry="23.233509"
       d="m 275.77164,200.80359 a 23.233509,23.233509 0 1 1 -46.46702,0 23.233509,23.233509 0 1 1 46.46702,0 z"
       transform="matrix(0.25416707,0,0,0.25416707,187.82081,9.880097)" />
    <path
       sodipodi:type="arc"
       style="fill:#000000;fill-opacity:1;stroke:#000000;stroke-width:3.93442011;stroke-miterlimit:5;stroke-opacity:1;stroke-dasharray:none;stroke-dashoffset:0"
       id="path2985-11-3"
       sodipodi:cx="252.53813"
       sodipodi:cy="200.80359"
       sodipodi:rx="23.233509"
       sodipodi:ry="23.233509"
       d="m 275.77164,200.80359 a 23.233509,23.233509 0 1 1 -46.46702,0 23.233509,23.233509 0 1 1 46.46702,0 z"
       transform="matrix(0.25416707,0,0,0.25416707,234.28782,-7.2924834)" />
    <path
       sodipodi:type="arc"
       style="fill:#000000;fill-opacity:1;stroke:#000000;stroke-width:3.93442011;stroke-miterlimit:5;stroke-opacity:1;stroke-dasharray:none;stroke-dashoffset:0"
       id="path2985-11-5-22"
       sodipodi:cx="252.53813"
       sodipodi:cy="200.80359"
       sodipodi:rx="23.233509"
       sodipodi:ry="23.233509"
       d="m 275.77164,200.80359 a 23.233509,23.233509 0 1 1 -46.46702,0 23.233509,23.233509 0 1 1 46.46702,0 z"
       transform="matrix(0.25416707,0,0,0.25416707,249.44011,-7.2924834)" />
    <path
       sodipodi:type="arc"
       style="fill:#000000;fill-opacity:1;stroke:#000000;stroke-width:3.93442011;stroke-miterlimit:5;stroke-opacity:1;stroke-dasharray:none;stroke-dashoffset:0"
       id="path2985-11-5-2-1"
       sodipodi:cx="252.53813"
       sodipodi:cy="200.80359"
       sodipodi:rx="23.233509"
       sodipodi:ry="23.233509"
       d="m 275.77164,200.80359 a 23.233509,23.233509 0 1 1 -46.46702,0 23.233509,23.233509 0 1 1 46.46702,0 z"
       transform="matrix(0.25416707,0,0,0.25416707,236.30813,7.8598066)" />
    <path
       sodipodi:type="arc"
       style="fill:#000000;fill-opacity:1;stroke:#000000;stroke-width:3.93442011;stroke-miterlimit:5;stroke-opacity:1;stroke-dasharray:none;stroke-dashoffset:0"
       id="path2985-11-5-2-7-6"
       sodipodi:cx="252.53813"
       sodipodi:cy="200.80359"
       sodipodi:rx="23.233509"
       sodipodi:ry="23.233509"
       d="m 275.77164,200.80359 a 23.233509,23.233509 0 1 1 -46.46702,0 23.233509,23.233509 0 1 1 46.46702,0 z"
       transform="matrix(0.25416707,0,0,0.25416707,252.47057,9.880107)" />
    <path
       sodipodi:type="arc"
       style="fill:#000000;fill-opacity:1;stroke:#000000;stroke-width:3.93442011;stroke-miterlimit:5;stroke-opacity:1;stroke-dasharray:none;stroke-dashoffset:0"
       id="path2985-11-8"
       sodipodi:cx="252.53813"
       sodipodi:cy="200.80359"
       sodipodi:rx="23.233509"
       sodipodi:ry="23.233509"
       d="m 275.77164,200.80359 a 23.233509,23.233509 0 1 1 -46.46702,0 23.233509,23.233509 0 1 1 46.46702,0 z"
       transform="matrix(0.25416707,0,0,0.25416707,298.93758,-8.3026334)" />
    <path
       sodipodi:type="arc"
       style="fill:#000000;fill-opacity:1;stroke:#000000;stroke-width:3.93442011;stroke-miterlimit:5;stroke-opacity:1;stroke-dasharray:none;stroke-dashoffset:0"
       id="path2985-11-5-5"
       sodipodi:cx="252.53813"
       sodipodi:cy="200.80359"
       sodipodi:rx="23.233509"
       sodipodi:ry="23.233509"
       d="m 275.77164,200.80359 a 23.233509,23.233509 0 1 1 -46.46702,0 23.233509,23.233509 0 1 1 46.46702,0 z"
       transform="matrix(0.25416707,0,0,0.25416707,314.08987,-8.3026334)" />
    <path
       sodipodi:type="arc"
       style="fill:#000000;fill-opacity:1;stroke:#000000;stroke-width:3.93442011;stroke-miterlimit:5;stroke-opacity:1;stroke-dasharray:none;stroke-dashoffset:0"
       id="path2985-11-5-2-76"
       sodipodi:cx="252.53813"
       sodipodi:cy="200.80359"
       sodipodi:rx="23.233509"
       sodipodi:ry="23.233509"
       d="m 275.77164,200.80359 a 23.233509,23.233509 0 1 1 -46.46702,0 23.233509,23.233509 0 1 1 46.46702,0 z"
       transform="matrix(0.25416707,0,0,0.25416707,300.95789,6.8496566)" />
    <path
       sodipodi:type="arc"
       style="fill:#000000;fill-opacity:1;stroke:#000000;stroke-width:3.93442011;stroke-miterlimit:5;stroke-opacity:1;stroke-dasharray:none;stroke-dashoffset:0"
       id="path2985-11-5-2-7-1"
       sodipodi:cx="252.53813"
       sodipodi:cy="200.80359"
       sodipodi:rx="23.233509"
       sodipodi:ry="23.233509"
       d="m 275.77164,200.80359 a 23.233509,23.233509 0 1 1 -46.46702,0 23.233509,23.233509 0 1 1 46.46702,0 z"
       transform="matrix(0.25416707,0,0,0.25416707,317.12033,8.869957)" />
    <path
       sodipodi:type="arc"
       style="fill:#000000;fill-opacity:1;stroke:#000000;stroke-width:3.93442011;stroke-miterlimit:5;stroke-opacity:1;stroke-dasharray:none;stroke-dashoffset:0"
       id="path2985-11-89"
       sodipodi:cx="252.53813"
       sodipodi:cy="200.80359"
       sodipodi:rx="23.233509"
       sodipodi:ry="23.233509"
       d="m 275.77164,200.80359 a 23.233509,23.233509 0 1 1 -46.46702,0 23.233509,23.233509 0 1 1 46.46702,0 z"
       transform="matrix(0.25416707,0,0,0.25416707,364.5975,-8.3026434)" />
    <path
       sodipodi:type="arc"
       style="fill:#000000;fill-opacity:1;stroke:#000000;stroke-width:3.93442011;stroke-miterlimit:5;stroke-opacity:1;stroke-dasharray:none;stroke-dashoffset:0"
       id="path2985-11-5-27"
       sodipodi:cx="252.53813"
       sodipodi:cy="200.80359"
       sodipodi:rx="23.233509"
       sodipodi:ry="23.233509"
       d="m 275.77164,200.80359 a 23.233509,23.233509 0 1 1 -46.46702,0 23.233509,23.233509 0 1 1 46.46702,0 z"
       transform="matrix(0.25416707,0,0,0.25416707,379.74979,-8.3026434)" />
    <path
       sodipodi:type="arc"
       style="fill:#000000;fill-opacity:1;stroke:#000000;stroke-width:3.93442011;stroke-miterlimit:5;stroke-opacity:1;stroke-dasharray:none;stroke-dashoffset:0"
       id="path2985-11-5-2-9"
       sodipodi:cx="252.53813"
       sodipodi:cy="200.80359"
       sodipodi:rx="23.233509"
       sodipodi:ry="23.233509"
       d="m 275.77164,200.80359 a 23.233509,23.233509 0 1 1 -46.46702,0 23.233509,23.233509 0 1 1 46.46702,0 z"
       transform="matrix(0.25416707,0,0,0.25416707,366.61781,6.8496466)" />
    <path
       sodipodi:type="arc"
       style="fill:#000000;fill-opacity:1;stroke:#000000;stroke-width:3.93442011;stroke-miterlimit:5;stroke-opacity:1;stroke-dasharray:none;stroke-dashoffset:0"
       id="path2985-11-5-2-7-5"
       sodipodi:cx="252.53813"
       sodipodi:cy="200.80359"
       sodipodi:rx="23.233509"
       sodipodi:ry="23.233509"
       d="m 275.77164,200.80359 a 23.233509,23.233509 0 1 1 -46.46702,0 23.233509,23.233509 0 1 1 46.46702,0 z"
       transform="matrix(0.25416707,0,0,0.25416707,382.78025,8.869947)" />
    <path
       sodipodi:type="arc"
       style="fill:#000000;fill-opacity:1;stroke:#000000;stroke-width:3.93442011;stroke-miterlimit:5;stroke-opacity:1;stroke-dasharray:none;stroke-dashoffset:0"
       id="path2985-11-4"
       sodipodi:cx="252.53813"
       sodipodi:cy="200.80359"
       sodipodi:rx="23.233509"
       sodipodi:ry="23.233509"
       d="m 275.77164,200.80359 a 23.233509,23.233509 0 1 1 -46.46702,0 23.233509,23.233509 0 1 1 46.46702,0 z"
       transform="matrix(0.25416707,0,0,0.25416707,428.2371,-9.3127834)" />
    <path
       sodipodi:type="arc"
       style="fill:#000000;fill-opacity:1;stroke:#000000;stroke-width:3.93442011;stroke-miterlimit:5;stroke-opacity:1;stroke-dasharray:none;stroke-dashoffset:0"
       id="path2985-11-5-3"
       sodipodi:cx="252.53813"
       sodipodi:cy="200.80359"
       sodipodi:rx="23.233509"
       sodipodi:ry="23.233509"
       d="m 275.77164,200.80359 a 23.233509,23.233509 0 1 1 -46.46702,0 23.233509,23.233509 0 1 1 46.46702,0 z"
       transform="matrix(0.25416707,0,0,0.25416707,443.38939,-9.3127834)" />
    <path
       sodipodi:type="arc"
       style="fill:#000000;fill-opacity:1;stroke:#000000;stroke-width:3.93442011;stroke-miterlimit:5;stroke-opacity:1;stroke-dasharray:none;stroke-dashoffset:0"
       id="path2985-11-5-2-12"
       sodipodi:cx="252.53813"
       sodipodi:cy="200.80359"
       sodipodi:rx="23.233509"
       sodipodi:ry="23.233509"
       d="m 275.77164,200.80359 a 23.233509,23.233509 0 1 1 -46.46702,0 23.233509,23.233509 0 1 1 46.46702,0 z"
       transform="matrix(0.25416707,0,0,0.25416707,430.25741,5.8395066)" />
    <path
       sodipodi:type="arc"
       style="fill:#000000;fill-opacity:1;stroke:#000000;stroke-width:3.93442011;stroke-miterlimit:5;stroke-opacity:1;stroke-dasharray:none;stroke-dashoffset:0"
       id="path2985-11-5-2-7-3"
       sodipodi:cx="252.53813"
       sodipodi:cy="200.80359"
       sodipodi:rx="23.233509"
       sodipodi:ry="23.233509"
       d="m 275.77164,200.80359 a 23.233509,23.233509 0 1 1 -46.46702,0 23.233509,23.233509 0 1 1 46.46702,0 z"
       transform="matrix(0.25416707,0,0,0.25416707,446.41985,7.8598066)" />
    <path
       sodipodi:type="arc"
       style="fill:#000000;fill-opacity:1;stroke:#000000;stroke-width:3.93442011;stroke-miterlimit:5;stroke-opacity:1;stroke-dasharray:none;stroke-dashoffset:0"
       id="path2985-11-34"
       sodipodi:cx="252.53813"
       sodipodi:cy="200.80359"
       sodipodi:rx="23.233509"
       sodipodi:ry="23.233509"
       d="m 275.77164,200.80359 a 23.233509,23.233509 0 1 1 -46.46702,0 23.233509,23.233509 0 1 1 46.46702,0 z"
       transform="matrix(0.25416707,0,0,0.25416707,107.0086,58.367427)" />
    <path
       sodipodi:type="arc"
       style="fill:#000000;fill-opacity:1;stroke:#000000;stroke-width:3.93442011;stroke-miterlimit:5;stroke-opacity:1;stroke-dasharray:none;stroke-dashoffset:0"
       id="path2985-11-5-11"
       sodipodi:cx="252.53813"
       sodipodi:cy="200.80359"
       sodipodi:rx="23.233509"
       sodipodi:ry="23.233509"
       d="m 275.77164,200.80359 a 23.233509,23.233509 0 1 1 -46.46702,0 23.233509,23.233509 0 1 1 46.46702,0 z"
       transform="matrix(0.25416707,0,0,0.25416707,122.16089,58.367427)" />
    <path
       sodipodi:type="arc"
       style="fill:#000000;fill-opacity:1;stroke:#000000;stroke-width:3.93442011;stroke-miterlimit:5;stroke-opacity:1;stroke-dasharray:none;stroke-dashoffset:0"
       id="path2985-11-5-2-3"
       sodipodi:cx="252.53813"
       sodipodi:cy="200.80359"
       sodipodi:rx="23.233509"
       sodipodi:ry="23.233509"
       d="m 275.77164,200.80359 a 23.233509,23.233509 0 1 1 -46.46702,0 23.233509,23.233509 0 1 1 46.46702,0 z"
       transform="matrix(0.25416707,0,0,0.25416707,109.02891,73.519717)" />
    <path
       sodipodi:type="arc"
       style="fill:#000000;fill-opacity:1;stroke:#000000;stroke-width:3.93442011;stroke-miterlimit:5;stroke-opacity:1;stroke-dasharray:none;stroke-dashoffset:0"
       id="path2985-11-5-2-7-8"
       sodipodi:cx="252.53813"
       sodipodi:cy="200.80359"
       sodipodi:rx="23.233509"
       sodipodi:ry="23.233509"
       d="m 275.77164,200.80359 a 23.233509,23.233509 0 1 1 -46.46702,0 23.233509,23.233509 0 1 1 46.46702,0 z"
       transform="matrix(0.25416707,0,0,0.25416707,125.19135,75.540017)" />
    <path
       sodipodi:type="arc"
       style="fill:#000000;fill-opacity:1;stroke:#000000;stroke-width:3.93442011;stroke-miterlimit:5;stroke-opacity:1;stroke-dasharray:none;stroke-dashoffset:0"
       id="path2985-11-7"
       sodipodi:cx="252.53813"
       sodipodi:cy="200.80359"
       sodipodi:rx="23.233509"
       sodipodi:ry="23.233509"
       d="m 275.77164,200.80359 a 23.233509,23.233509 0 1 1 -46.46702,0 23.233509,23.233509 0 1 1 46.46702,0 z"
       transform="matrix(0.25416707,0,0,0.25416707,170.6482,60.387727)" />
    <path
       sodipodi:type="arc"
       style="fill:#000000;fill-opacity:1;stroke:#000000;stroke-width:3.93442011;stroke-miterlimit:5;stroke-opacity:1;stroke-dasharray:none;stroke-dashoffset:0"
       id="path2985-11-5-4"
       sodipodi:cx="252.53813"
       sodipodi:cy="200.80359"
       sodipodi:rx="23.233509"
       sodipodi:ry="23.233509"
       d="m 275.77164,200.80359 a 23.233509,23.233509 0 1 1 -46.46702,0 23.233509,23.233509 0 1 1 46.46702,0 z"
       transform="matrix(0.25416707,0,0,0.25416707,185.80049,60.387727)" />
    <path
       sodipodi:type="arc"
       style="fill:#000000;fill-opacity:1;stroke:#000000;stroke-width:3.93442011;stroke-miterlimit:5;stroke-opacity:1;stroke-dasharray:none;stroke-dashoffset:0"
       id="path2985-11-5-2-2"
       sodipodi:cx="252.53813"
       sodipodi:cy="200.80359"
       sodipodi:rx="23.233509"
       sodipodi:ry="23.233509"
       d="m 275.77164,200.80359 a 23.233509,23.233509 0 1 1 -46.46702,0 23.233509,23.233509 0 1 1 46.46702,0 z"
       transform="matrix(0.25416707,0,0,0.25416707,172.66851,75.540017)" />
    <path
       sodipodi:type="arc"
       style="fill:#000000;fill-opacity:1;stroke:#000000;stroke-width:3.93442011;stroke-miterlimit:5;stroke-opacity:1;stroke-dasharray:none;stroke-dashoffset:0"
       id="path2985-11-5-2-7-7"
       sodipodi:cx="252.53813"
       sodipodi:cy="200.80359"
       sodipodi:rx="23.233509"
       sodipodi:ry="23.233509"
       d="m 275.77164,200.80359 a 23.233509,23.233509 0 1 1 -46.46702,0 23.233509,23.233509 0 1 1 46.46702,0 z"
       transform="matrix(0.25416707,0,0,0.25416707,188.83095,77.560317)" />
    <path
       sodipodi:type="arc"
       style="fill:#000000;fill-opacity:1;stroke:#000000;stroke-width:3.93442011;stroke-miterlimit:5;stroke-opacity:1;stroke-dasharray:none;stroke-dashoffset:0"
       id="path2985-11-79"
       sodipodi:cx="252.53813"
       sodipodi:cy="200.80359"
       sodipodi:rx="23.233509"
       sodipodi:ry="23.233509"
       d="m 275.77164,200.80359 a 23.233509,23.233509 0 1 1 -46.46702,0 23.233509,23.233509 0 1 1 46.46702,0 z"
       transform="matrix(0.25416707,0,0,0.25416707,235.29797,59.377577)" />
    <path
       sodipodi:type="arc"
       style="fill:#000000;fill-opacity:1;stroke:#000000;stroke-width:3.93442011;stroke-miterlimit:5;stroke-opacity:1;stroke-dasharray:none;stroke-dashoffset:0"
       id="path2985-11-5-31"
       sodipodi:cx="252.53813"
       sodipodi:cy="200.80359"
       sodipodi:rx="23.233509"
       sodipodi:ry="23.233509"
       d="m 275.77164,200.80359 a 23.233509,23.233509 0 1 1 -46.46702,0 23.233509,23.233509 0 1 1 46.46702,0 z"
       transform="matrix(0.25416707,0,0,0.25416707,250.45026,59.377577)" />
    <path
       sodipodi:type="arc"
       style="fill:#000000;fill-opacity:1;stroke:#000000;stroke-width:3.93442011;stroke-miterlimit:5;stroke-opacity:1;stroke-dasharray:none;stroke-dashoffset:0"
       id="path2985-11-5-2-98"
       sodipodi:cx="252.53813"
       sodipodi:cy="200.80359"
       sodipodi:rx="23.233509"
       sodipodi:ry="23.233509"
       d="m 275.77164,200.80359 a 23.233509,23.233509 0 1 1 -46.46702,0 23.233509,23.233509 0 1 1 46.46702,0 z"
       transform="matrix(0.25416707,0,0,0.25416707,237.31828,74.529867)" />
    <path
       sodipodi:type="arc"
       style="fill:#000000;fill-opacity:1;stroke:#000000;stroke-width:3.93442011;stroke-miterlimit:5;stroke-opacity:1;stroke-dasharray:none;stroke-dashoffset:0"
       id="path2985-11-5-2-7-65"
       sodipodi:cx="252.53813"
       sodipodi:cy="200.80359"
       sodipodi:rx="23.233509"
       sodipodi:ry="23.233509"
       d="m 275.77164,200.80359 a 23.233509,23.233509 0 1 1 -46.46702,0 23.233509,23.233509 0 1 1 46.46702,0 z"
       transform="matrix(0.25416707,0,0,0.25416707,253.48072,76.550167)" />
    <path
       sodipodi:type="arc"
       style="fill:#000000;fill-opacity:1;stroke:#000000;stroke-width:3.93442011;stroke-miterlimit:5;stroke-opacity:1;stroke-dasharray:none;stroke-dashoffset:0"
       id="path2985-11-0"
       sodipodi:cx="252.53813"
       sodipodi:cy="200.80359"
       sodipodi:rx="23.233509"
       sodipodi:ry="23.233509"
       d="m 275.77164,200.80359 a 23.233509,23.233509 0 1 1 -46.46702,0 23.233509,23.233509 0 1 1 46.46702,0 z"
       transform="matrix(0.25416707,0,0,0.25416707,296.91727,59.377587)" />
    <path
       sodipodi:type="arc"
       style="fill:#000000;fill-opacity:1;stroke:#000000;stroke-width:3.93442011;stroke-miterlimit:5;stroke-opacity:1;stroke-dasharray:none;stroke-dashoffset:0"
       id="path2985-11-5-28"
       sodipodi:cx="252.53813"
       sodipodi:cy="200.80359"
       sodipodi:rx="23.233509"
       sodipodi:ry="23.233509"
       d="m 275.77164,200.80359 a 23.233509,23.233509 0 1 1 -46.46702,0 23.233509,23.233509 0 1 1 46.46702,0 z"
       transform="matrix(0.25416707,0,0,0.25416707,312.06956,59.377587)" />
    <path
       sodipodi:type="arc"
       style="fill:#000000;fill-opacity:1;stroke:#000000;stroke-width:3.93442011;stroke-miterlimit:5;stroke-opacity:1;stroke-dasharray:none;stroke-dashoffset:0"
       id="path2985-11-5-2-6"
       sodipodi:cx="252.53813"
       sodipodi:cy="200.80359"
       sodipodi:rx="23.233509"
       sodipodi:ry="23.233509"
       d="m 275.77164,200.80359 a 23.233509,23.233509 0 1 1 -46.46702,0 23.233509,23.233509 0 1 1 46.46702,0 z"
       transform="matrix(0.25416707,0,0,0.25416707,298.93758,74.529877)" />
    <path
       sodipodi:type="arc"
       style="fill:#000000;fill-opacity:1;stroke:#000000;stroke-width:3.93442011;stroke-miterlimit:5;stroke-opacity:1;stroke-dasharray:none;stroke-dashoffset:0"
       id="path2985-11-5-2-7-0"
       sodipodi:cx="252.53813"
       sodipodi:cy="200.80359"
       sodipodi:rx="23.233509"
       sodipodi:ry="23.233509"
       d="m 275.77164,200.80359 a 23.233509,23.233509 0 1 1 -46.46702,0 23.233509,23.233509 0 1 1 46.46702,0 z"
       transform="matrix(0.25416707,0,0,0.25416707,315.10002,76.550177)" />
    <path
       sodipodi:type="arc"
       style="fill:#000000;fill-opacity:1;stroke:#000000;stroke-width:3.93442011;stroke-miterlimit:5;stroke-opacity:1;stroke-dasharray:none;stroke-dashoffset:0"
       id="path2985-11-2"
       sodipodi:cx="252.53813"
       sodipodi:cy="200.80359"
       sodipodi:rx="23.233509"
       sodipodi:ry="23.233509"
       d="m 275.77164,200.80359 a 23.233509,23.233509 0 1 1 -46.46702,0 23.233509,23.233509 0 1 1 46.46702,0 z"
       transform="matrix(0.25416707,0,0,0.25416707,364.5975,61.397887)" />
    <path
       sodipodi:type="arc"
       style="fill:#000000;fill-opacity:1;stroke:#000000;stroke-width:3.93442011;stroke-miterlimit:5;stroke-opacity:1;stroke-dasharray:none;stroke-dashoffset:0"
       id="path2985-11-5-48"
       sodipodi:cx="252.53813"
       sodipodi:cy="200.80359"
       sodipodi:rx="23.233509"
       sodipodi:ry="23.233509"
       d="m 275.77164,200.80359 a 23.233509,23.233509 0 1 1 -46.46702,0 23.233509,23.233509 0 1 1 46.46702,0 z"
       transform="matrix(0.25416707,0,0,0.25416707,379.74979,61.397887)" />
    <path
       sodipodi:type="arc"
       style="fill:#000000;fill-opacity:1;stroke:#000000;stroke-width:3.93442011;stroke-miterlimit:5;stroke-opacity:1;stroke-dasharray:none;stroke-dashoffset:0"
       id="path2985-11-5-2-65"
       sodipodi:cx="252.53813"
       sodipodi:cy="200.80359"
       sodipodi:rx="23.233509"
       sodipodi:ry="23.233509"
       d="m 275.77164,200.80359 a 23.233509,23.233509 0 1 1 -46.46702,0 23.233509,23.233509 0 1 1 46.46702,0 z"
       transform="matrix(0.25416707,0,0,0.25416707,366.61781,76.550177)" />
    <path
       sodipodi:type="arc"
       style="fill:#000000;fill-opacity:1;stroke:#000000;stroke-width:3.93442011;stroke-miterlimit:5;stroke-opacity:1;stroke-dasharray:none;stroke-dashoffset:0"
       id="path2985-11-5-2-7-09"
       sodipodi:cx="252.53813"
       sodipodi:cy="200.80359"
       sodipodi:rx="23.233509"
       sodipodi:ry="23.233509"
       d="m 275.77164,200.80359 a 23.233509,23.233509 0 1 1 -46.46702,0 23.233509,23.233509 0 1 1 46.46702,0 z"
       transform="matrix(0.25416707,0,0,0.25416707,382.78025,78.570477)" />
    <path
       sodipodi:type="arc"
       style="fill:#000000;fill-opacity:1;stroke:#000000;stroke-width:3.93442011;stroke-miterlimit:5;stroke-opacity:1;stroke-dasharray:none;stroke-dashoffset:0"
       id="path2985-11-00"
       sodipodi:cx="252.53813"
       sodipodi:cy="200.80359"
       sodipodi:rx="23.233509"
       sodipodi:ry="23.233509"
       d="m 275.77164,200.80359 a 23.233509,23.233509 0 1 1 -46.46702,0 23.233509,23.233509 0 1 1 46.46702,0 z"
       transform="matrix(0.25416707,0,0,0.25416707,428.23711,61.397877)" />
    <path
       sodipodi:type="arc"
       style="fill:#000000;fill-opacity:1;stroke:#000000;stroke-width:3.93442011;stroke-miterlimit:5;stroke-opacity:1;stroke-dasharray:none;stroke-dashoffset:0"
       id="path2985-11-5-6"
       sodipodi:cx="252.53813"
       sodipodi:cy="200.80359"
       sodipodi:rx="23.233509"
       sodipodi:ry="23.233509"
       d="m 275.77164,200.80359 a 23.233509,23.233509 0 1 1 -46.46702,0 23.233509,23.233509 0 1 1 46.46702,0 z"
       transform="matrix(0.25416707,0,0,0.25416707,443.3894,61.397877)" />
    <path
       sodipodi:type="arc"
       style="fill:#000000;fill-opacity:1;stroke:#000000;stroke-width:3.93442011;stroke-miterlimit:5;stroke-opacity:1;stroke-dasharray:none;stroke-dashoffset:0"
       id="path2985-11-5-2-13"
       sodipodi:cx="252.53813"
       sodipodi:cy="200.80359"
       sodipodi:rx="23.233509"
       sodipodi:ry="23.233509"
       d="m 275.77164,200.80359 a 23.233509,23.233509 0 1 1 -46.46702,0 23.233509,23.233509 0 1 1 46.46702,0 z"
       transform="matrix(0.25416707,0,0,0.25416707,430.25742,76.550167)" />
    <path
       sodipodi:type="arc"
       style="fill:#000000;fill-opacity:1;stroke:#000000;stroke-width:3.93442011;stroke-miterlimit:5;stroke-opacity:1;stroke-dasharray:none;stroke-dashoffset:0"
       id="path2985-11-5-2-7-89"
       sodipodi:cx="252.53813"
       sodipodi:cy="200.80359"
       sodipodi:rx="23.233509"
       sodipodi:ry="23.233509"
       d="m 275.77164,200.80359 a 23.233509,23.233509 0 1 1 -46.46702,0 23.233509,23.233509 0 1 1 46.46702,0 z"
       transform="matrix(0.25416707,0,0,0.25416707,446.41986,78.570467)" />
  </g>
</svg>
